<svg version="1.0" xmlns="http://www.w3.org/2000/svg"
     width="100%" height="100%" viewBox="0 0 225.000000 225.000000"
     preserveAspectRatio="xMidYMid meet">

    <g transform="translate(0.000000,225.000000) scale(0.100000,-0.100000)"
       fill="#da0810" stroke="none">
        <path d="M1310 1675 c-498 -156 -994 -312 -1102 -346 -109 -34 -195 -66 -192
                            -70 3 -5 95 -76 204 -159 l200 -151 2 -373 3 -374 192 166 c105 92 192 171
                            192 175 1 5 -18 31 -40 58 l-42 49 -71 -63 c-39 -35 -77 -67 -84 -71 -9 -6
                            -12 38 -12 206 l0 214 333 201 c182 110 505 305 717 432 212 128 394 237 405
                            243 18 9 18 9 5 -4 -8 -8 -91 -78 -185 -154 -689 -566 -1086 -897 -1083 -905
                            6 -15 583 -437 590 -430 4 3 196 352 428 776 232 424 432 789 446 812 27 48
                            29 53 12 52 -7 0 -420 -128 -918 -284z"/>
    </g>
</svg>
